<svg xmlns="http://www.w3.org/2000/svg" xmlns:xlink="http://www.w3.org/1999/xlink" width="42" height="42" viewBox="0 0 42 42">
  <defs>
    <clipPath id="clip-path">
      <rect id="Rectangle_90" data-name="Rectangle 90" width="42" height="42" rx="20" transform="translate(0)" fill="#fff"/>
    </clipPath>
  </defs>
  <g id="Mask_Group_2" data-name="Mask Group 2" transform="translate(0)" clip-path="url(#clip-path)">
    <g id="Group_70" data-name="Group 70" transform="translate(0)">
      <g id="Twitter">
        <ellipse id="Ellipse_3" data-name="Ellipse 3" cx="21" cy="21" rx="21" ry="21" fill="#1da1f2"/>
        <path id="Twitter_2_" d="M684.774,409.562a7.687,7.687,0,0,1-2.708,1.05,4.26,4.26,0,0,0-3.094-1.382,4.317,4.317,0,0,0-4.255,4.366,6.117,6.117,0,0,0,.111,1,11.965,11.965,0,0,1-8.731-4.531,4.242,4.242,0,0,0-.552,2.211,4.6,4.6,0,0,0,1.879,3.648,3.928,3.928,0,0,1-1.934-.552v.055a4.281,4.281,0,0,0,3.426,4.255,3.56,3.56,0,0,1-1.1.166,3.4,3.4,0,0,1-.774-.055,4.336,4.336,0,0,0,3.979,3.039,8.341,8.341,0,0,1-5.25,1.879,6.013,6.013,0,0,1-1-.055,11.9,11.9,0,0,0,6.521,1.934c7.792,0,12.1-6.631,12.1-12.379v-.552a8.225,8.225,0,0,0,2.1-2.266,7.594,7.594,0,0,1-2.432.663,6.092,6.092,0,0,0,1.713-2.488Z" transform="translate(-654.214 -396.962)" fill="#fff"/>
      </g>
    </g>
  </g>
</svg>
