<svg xmlns="http://www.w3.org/2000/svg" width="131.262" height="26" viewBox="0 0 131.262 26">
  <g id="Voicea" transform="translate(0)">
    <g id="Group-2">
      <g id="Group">
        <path id="Path-Copy-3" d="M29.238,6.5,18.86,23.7A4.818,4.818,0,0,1,14.813,26a4.7,4.7,0,0,1-4.033-2.292L.483,6.664A4.674,4.674,0,0,1,.877,1.847,4.769,4.769,0,0,1,4.742.033L17.42,0a2.4,2.4,0,0,1,2.406,2.391,33.691,33.691,0,0,1-2.279,4.536c-.22.377-.439.756-.659,1.13-.063.117-.135.23-.2.347a2.413,2.413,0,0,1-4.159,0L10.912,5.615H8.266a1.066,1.066,0,0,0-.927.534,1.052,1.052,0,0,0,.01,1.065l6.565,10.895a1.051,1.051,0,0,0,.9.514,1.066,1.066,0,0,0,.9-.514l8.7-14.46a2.814,2.814,0,0,1,3.846-.959,2.776,2.776,0,0,1,.966,3.822Z" transform="translate(0)" fill="#427bfb" fill-rule="evenodd"/>
      </g>
      <g id="Group-70" transform="translate(36.554 1.936)">
        <path id="Path-Copy" d="M16.055,25.58a1.751,1.751,0,0,1-.192.787l-6.1,12.559a1.842,1.842,0,0,1-3.47,0L.3,26.559A2.224,2.224,0,0,1,0,25.452a1.346,1.346,0,0,1,1.4-1.344c.693,0,1.052.326,1.379,1.018l5.24,11.182h.071l5.24-11.253a1.43,1.43,0,0,1,1.347-.947,1.339,1.339,0,0,1,1.373,1.472Z" transform="translate(0 -18.021)" fill-rule="evenodd"/>
        <path id="Shape-Copy" d="M74.131,24.106c4.933,0,8.308,3.26,8.308,8.021s-3.393,8.021-8.308,8.021-8.308-3.26-8.308-8.021S69.2,24.106,74.131,24.106Zm0,13.458a5.156,5.156,0,0,0,5.419-5.437,5.4,5.4,0,1,0-10.807,0,5.171,5.171,0,0,0,5.387,5.462Z" transform="translate(-49.207 -18.021)"/>
        <path id="Shape-Copy-2" d="M142.619,1.744A1.759,1.759,0,0,1,143.656.128a1.6,1.6,0,0,1,1.807.4,1.832,1.832,0,0,1,.343,1.919,1.66,1.66,0,0,1-1.545,1.068,1.526,1.526,0,0,1-1.2-.5A1.718,1.718,0,0,1,142.619,1.744Zm2.975,6.138v12.71a1.431,1.431,0,0,1-.621,1.326,1.265,1.265,0,0,1-1.4,0,1.431,1.431,0,0,1-.621-1.326V7.881a1.431,1.431,0,0,1,.621-1.326,1.265,1.265,0,0,1,1.4,0A1.431,1.431,0,0,1,145.594,7.881Z" transform="translate(-106.616 0)"/>
        <path id="Path-Copy-2" d="M183.605,37.365a7.956,7.956,0,0,1-6.4,2.776c-4.9,0-8.261-3.258-8.261-8.016s3.343-8.017,8.261-8.017a8.4,8.4,0,0,1,6.043,2.364,1.393,1.393,0,0,1,.356.957,1.24,1.24,0,0,1-.373.944,1.282,1.282,0,0,1-.961.363,1.378,1.378,0,0,1-.972-.381,5.5,5.5,0,0,0-4.092-1.663,5.135,5.135,0,0,0-5.357,5.434,5.135,5.135,0,0,0,5.357,5.434,5.294,5.294,0,0,0,4.257-1.826,1.362,1.362,0,0,1,1.068-.507,1.283,1.283,0,0,1,.983.35,1.24,1.24,0,0,1,.384.957A1.355,1.355,0,0,1,183.605,37.365Z" transform="translate(-126.299 -18.021)" fill-rule="evenodd"/>
        <path id="Shape-Copy-3" d="M250.823,31.481a1.621,1.621,0,0,1-.483,1.3,1.643,1.643,0,0,1-1.317.457H237.732a5.1,5.1,0,0,0,5.375,4.347,5.523,5.523,0,0,0,4.3-1.851,1.419,1.419,0,0,1,1.1-.507,1.263,1.263,0,0,1,.969.353,1.246,1.246,0,0,1,.378.954,1.364,1.364,0,0,1-.29.832,8.205,8.205,0,0,1-6.457,2.777c-5.035,0-8.333-3.227-8.333-8.019s3.317-8.019,8.182-8.019c4.531,0,7.88,3.19,7.88,7.281ZM237.8,30.73h10.29a5.3,5.3,0,0,0-10.29,0Z" transform="translate(-175.506 -18.021)"/>
        <path id="Shape-Copy-4" d="M325.972,25.833V38.466a1.332,1.332,0,0,1-.366,1.076,1.4,1.4,0,0,1-1.077.426,1.383,1.383,0,0,1-1.063-.431,1.311,1.311,0,0,1-.348-1.071V37.6h-.064a7.164,7.164,0,0,1-5.93,2.553c-4.648,0-7.757-3.2-7.757-8.021s3.109-8.021,7.757-8.021a7.254,7.254,0,0,1,5.93,2.553h.064v-.826a1.323,1.323,0,0,1,.339-1.087,1.394,1.394,0,0,1,1.071-.446,1.415,1.415,0,0,1,1.085.44A1.343,1.343,0,0,1,325.972,25.833Zm-2.853,6.3A5.206,5.206,0,0,0,317.65,26.7a5.113,5.113,0,0,0-5.372,5.437,5.151,5.151,0,0,0,5.372,5.437A5.245,5.245,0,0,0,323.119,32.134Z" transform="translate(-231.274 -18.021)"/>
      </g>
    </g>
  </g>
</svg>
